<?xml version="1.0" encoding="UTF-8" standalone="no"?>
<!DOCTYPE svg PUBLIC "-//W3C//DTD SVG 1.1//EN"
 "http://www.w3.org/Graphics/SVG/1.1/DTD/svg11.dtd">
<!-- Generated by graphviz version 2.40.1 (20161225.0304)
 -->
<!-- Title: G Pages: 1 -->
<svg width="559pt" height="430pt"
 viewBox="0.00 0.00 559.26 429.71" xmlns="http://www.w3.org/2000/svg" xmlns:xlink="http://www.w3.org/1999/xlink">
<g id="graph0" class="graph" transform="scale(1 1) rotate(0) translate(4 425.7056)">
<title>G</title><style>.edge>path:hover{stroke-width:8}</style>
<polygon fill="#ffffff" stroke="transparent" points="-4,4 -4,-425.7056 555.2584,-425.7056 555.2584,4 -4,4"/>
<!-- code_leap_frog_algorithm -->
<g id="node1" class="node">
<title>code_leap_frog_algorithm</title><style>.edge>path:hover{stroke-width:8}</style>
<ellipse fill="#ac4949" stroke="#000000" cx="479.8406" cy="-93.2132" rx="71.3357" ry="21.4286"/>
<text text-anchor="middle" x="479.8406" y="-96.2132" font-family="Helvetica,sans-Serif" font-size="10.00" fill="#ffffff">code.</text>
<text text-anchor="middle" x="479.8406" y="-85.2132" font-family="Helvetica,sans-Serif" font-size="10.00" fill="#ffffff">leap_frog_algorithm</text>
</g>
<!-- code_physical_functions -->
<g id="node2" class="node">
<title>code_physical_functions</title><style>.edge>path:hover{stroke-width:8}</style>
<ellipse fill="#b03a3a" stroke="#000000" cx="431.8406" cy="-171.6396" rx="69.0935" ry="21.4286"/>
<text text-anchor="middle" x="431.8406" y="-174.6396" font-family="Helvetica,sans-Serif" font-size="10.00" fill="#ffffff">code.</text>
<text text-anchor="middle" x="431.8406" y="-163.6396" font-family="Helvetica,sans-Serif" font-size="10.00" fill="#ffffff">physical_functions</text>
</g>
<!-- code_physical_functions&#45;&gt;code_leap_frog_algorithm -->
<g id="edge1" class="edge">
<title>code_physical_functions&#45;&gt;code_leap_frog_algorithm</title><style>.edge>path:hover{stroke-width:8}</style>
<path fill="none" stroke="#000000" d="M444.7037,-150.6228C449.9227,-142.0955 456.0446,-132.0932 461.7032,-122.8476"/>
<polygon fill="#b03a3a" stroke="#000000" points="464.7069,-124.6445 466.942,-114.2881 458.7364,-120.9903 464.7069,-124.6445"/>
</g>
<!-- code_planet_system_creation -->
<g id="node3" class="node">
<title>code_planet_system_creation</title><style>.edge>path:hover{stroke-width:8}</style>
<ellipse fill="#b34c4c" stroke="#000000" cx="190.8406" cy="-250.066" rx="84.7059" ry="21.4286"/>
<text text-anchor="middle" x="190.8406" y="-253.066" font-family="Helvetica,sans-Serif" font-size="10.00" fill="#ffffff">code.</text>
<text text-anchor="middle" x="190.8406" y="-242.066" font-family="Helvetica,sans-Serif" font-size="10.00" fill="#ffffff">planet_system_creation</text>
</g>
<!-- code_plotting -->
<g id="node4" class="node">
<title>code_plotting</title><style>.edge>path:hover{stroke-width:8}</style>
<ellipse fill="#ac4949" stroke="#000000" cx="43.8406" cy="-18" rx="42.2678" ry="18"/>
<text text-anchor="middle" x="43.8406" y="-15.5" font-family="Helvetica,sans-Serif" font-size="10.00" fill="#ffffff">code.plotting</text>
</g>
<!-- matplotlib -->
<g id="node5" class="node">
<title>matplotlib</title><style>.edge>path:hover{stroke-width:8}</style>
<ellipse fill="#75bc2f" stroke="#000000" cx="106.8406" cy="-171.6396" rx="34.9638" ry="18"/>
<text text-anchor="middle" x="106.8406" y="-169.1396" font-family="Helvetica,sans-Serif" font-size="10.00" fill="#000000">matplotlib</text>
</g>
<!-- matplotlib&#45;&gt;code_plotting -->
<g id="edge2" class="edge">
<title>matplotlib&#45;&gt;code_plotting</title><style>.edge>path:hover{stroke-width:8}</style>
<path fill="none" stroke="#000000" d="M86.9149,-156.5095C70.425,-142.3378 48.9124,-119.4485 43.8406,-93.2132"/>
</g>
<!-- matplotlib_pyplot -->
<g id="node6" class="node">
<title>matplotlib_pyplot</title><style>.edge>path:hover{stroke-width:8}</style>
<ellipse fill="#7ab83d" stroke="#000000" cx="43.8406" cy="-250.066" rx="43.6818" ry="21.4286"/>
<text text-anchor="middle" x="43.8406" y="-253.066" font-family="Helvetica,sans-Serif" font-size="10.00" fill="#000000">matplotlib.</text>
<text text-anchor="middle" x="43.8406" y="-242.066" font-family="Helvetica,sans-Serif" font-size="10.00" fill="#000000">pyplot</text>
</g>
<!-- matplotlib_pyplot&#45;&gt;code_plotting -->
<g id="edge3" class="edge">
<title>matplotlib_pyplot&#45;&gt;code_plotting</title><style>.edge>path:hover{stroke-width:8}</style>
<path fill="none" stroke="#000000" d="M46.3773,-228.7656C49.4267,-198.3674 53.0667,-140.9376 43.8406,-93.2132"/>
<path fill="none" stroke="#000000" d="M43.8406,-93.2132C40.6295,-77.9389 40.417,-60.5308 41.1031,-46.3116"/>
<polygon fill="#7ab83d" stroke="#000000" points="44.6076,-46.355 41.768,-36.1478 37.6225,-45.8979 44.6076,-46.355"/>
</g>
<!-- matplotlib_pyplot&#45;&gt;matplotlib -->
<g id="edge4" class="edge">
<title>matplotlib_pyplot&#45;&gt;matplotlib</title><style>.edge>path:hover{stroke-width:8}</style>
<path fill="none" stroke="#000000" d="M59.7382,-230.2757C67.9876,-220.0063 78.1471,-207.3591 86.9163,-196.4426"/>
<polygon fill="#7ab83d" stroke="#000000" points="89.7625,-198.4882 93.2965,-188.5002 84.3052,-194.1044 89.7625,-198.4882"/>
</g>
<!-- numpy -->
<g id="node7" class="node">
<title>numpy</title><style>.edge>path:hover{stroke-width:8}</style>
<ellipse fill="#06f9f9" stroke="#000000" cx="358.8406" cy="-403.7056" rx="27.1572" ry="18"/>
<text text-anchor="middle" x="358.8406" y="-401.2056" font-family="Helvetica,sans-Serif" font-size="10.00" fill="#000000">numpy</text>
</g>
<!-- numpy&#45;&gt;code_leap_frog_algorithm -->
<g id="edge5" class="edge">
<title>numpy&#45;&gt;code_leap_frog_algorithm</title><style>.edge>path:hover{stroke-width:8}</style>
<path fill="none" stroke="#000000" d="M528.8406,-250.066C521.2049,-205.6352 524.6913,-192.9924 509.8406,-150.4264 506.6391,-141.2499 502.1675,-131.7303 497.6525,-123.1512"/>
<polygon fill="#06f9f9" stroke="#000000" points="500.6648,-121.3648 492.7943,-114.272 494.5238,-124.7248 500.6648,-121.3648"/>
</g>
<!-- numpy&#45;&gt;code_physical_functions -->
<g id="edge6" class="edge">
<title>numpy&#45;&gt;code_physical_functions</title><style>.edge>path:hover{stroke-width:8}</style>
<path fill="none" stroke="#000000" d="M385.5063,-400.2132C416.4631,-394.7757 467.0677,-381.3916 496.8406,-349.7056 528.6904,-315.8093 541.557,-294.806 528.8406,-250.066"/>
<path fill="none" stroke="#000000" d="M528.8406,-250.066C524.5207,-224.9295 503.6457,-206.3224 482.3623,-193.5571"/>
<polygon fill="#06f9f9" stroke="#000000" points="484.0146,-190.4707 473.5842,-188.6116 480.5787,-196.5695 484.0146,-190.4707"/>
</g>
<!-- numpy&#45;&gt;code_planet_system_creation -->
<g id="edge7" class="edge">
<title>numpy&#45;&gt;code_planet_system_creation</title><style>.edge>path:hover{stroke-width:8}</style>
<path fill="none" stroke="#000000" d="M303.8406,-328.4924C282.267,-308.3513 255.1858,-289.378 232.9435,-275.1395"/>
<polygon fill="#06f9f9" stroke="#000000" points="234.691,-272.1036 224.3659,-269.7279 230.9559,-278.0239 234.691,-272.1036"/>
</g>
<!-- numpy&#45;&gt;matplotlib -->
<g id="edge8" class="edge">
<title>numpy&#45;&gt;matplotlib</title><style>.edge>path:hover{stroke-width:8}</style>
<path fill="none" stroke="#000000" d="M303.8406,-328.4924C270.8874,-297.7273 314.7063,-262.6233 284.8406,-228.8528 266.8102,-208.465 196.0214,-190.2373 149.3309,-180.0882"/>
<polygon fill="#06f9f9" stroke="#000000" points="149.9827,-176.6485 139.4727,-177.9869 148.5234,-183.4948 149.9827,-176.6485"/>
</g>
<!-- numpy&#45;&gt;matplotlib_pyplot -->
<g id="edge9" class="edge">
<title>numpy&#45;&gt;matplotlib_pyplot</title><style>.edge>path:hover{stroke-width:8}</style>
<path fill="none" stroke="#000000" d="M347.7928,-387.1211C334.8473,-367.9643 313.8914,-337.8758 303.8406,-328.4924"/>
<path fill="none" stroke="#000000" d="M303.8406,-328.4924C234.0711,-263.3556 187.2875,-301.7743 96.8406,-271.2792 93.4993,-270.1526 90.063,-268.9295 86.6227,-267.6583"/>
<polygon fill="#06f9f9" stroke="#000000" points="87.5829,-264.2788 76.9921,-263.9893 85.0908,-270.8202 87.5829,-264.2788"/>
</g>
<!-- scipy -->
<g id="node8" class="node">
<title>scipy</title><style>.edge>path:hover{stroke-width:8}</style>
<ellipse fill="#7a31c4" stroke="#000000" cx="358.8406" cy="-328.4924" rx="27" ry="18"/>
<text text-anchor="middle" x="358.8406" y="-325.9924" font-family="Helvetica,sans-Serif" font-size="10.00" fill="#ffffff">scipy</text>
</g>
<!-- numpy&#45;&gt;scipy -->
<g id="edge10" class="edge">
<title>numpy&#45;&gt;scipy</title><style>.edge>path:hover{stroke-width:8}</style>
<path fill="none" stroke="#000000" d="M358.8406,-385.4986C358.8406,-376.8143 358.8406,-366.2295 358.8406,-356.5488"/>
<polygon fill="#06f9f9" stroke="#000000" points="362.3407,-356.5317 358.8406,-346.5318 355.3407,-356.5318 362.3407,-356.5317"/>
</g>
<!-- scipy&#45;&gt;code_physical_functions -->
<g id="edge11" class="edge">
<title>scipy&#45;&gt;code_physical_functions</title><style>.edge>path:hover{stroke-width:8}</style>
<path fill="none" stroke="#000000" d="M378.1583,-315.4743C402.8838,-298.1675 442.9034,-267.7184 445.8406,-250.066"/>
<path fill="none" stroke="#000000" d="M445.8406,-250.066C448.4346,-234.4764 445.9238,-217.1788 442.3483,-202.8039"/>
<polygon fill="#7a31c4" stroke="#000000" points="445.6537,-201.6247 439.6145,-192.9195 438.907,-203.4907 445.6537,-201.6247"/>
</g>
<!-- scipy_constants -->
<g id="node9" class="node">
<title>scipy_constants</title><style>.edge>path:hover{stroke-width:8}</style>
<ellipse fill="#7f4cb3" stroke="#000000" cx="445.8406" cy="-328.4924" rx="41.9398" ry="21.4286"/>
<text text-anchor="middle" x="445.8406" y="-331.4924" font-family="Helvetica,sans-Serif" font-size="10.00" fill="#ffffff">scipy.</text>
<text text-anchor="middle" x="445.8406" y="-320.4924" font-family="Helvetica,sans-Serif" font-size="10.00" fill="#ffffff">constants</text>
</g>
<!-- scipy_constants&#45;&gt;code_physical_functions -->
<g id="edge12" class="edge">
<title>scipy_constants&#45;&gt;code_physical_functions</title><style>.edge>path:hover{stroke-width:8}</style>
<path fill="none" stroke="#000000" d="M443.9527,-307.0331C443.0143,-291.1822 442.6672,-269.1381 445.8406,-250.066"/>
</g>
</g>
</svg>
